<svg width="312" height="278" xmlns="http://www.w3.org/2000/svg"><defs><linearGradient x1="225520%" y1="113617%" x2="225520%" y2="118037%" id="a"><stop stop-color="#4387FD" offset="0%"/><stop stop-color="#4683EA" offset="100%"/></linearGradient></defs><g fill="none" fill-rule="evenodd"><path d="M67.92 263.342L3.987 152.728a27.95 27.95 0 010-27.982L67.921 14.13A28.025 28.025 0 0192.178.171h127.87a28.025 28.025 0 0124.257 13.96l63.934 110.615a27.95 27.95 0 010 27.982l-63.934 110.614a28.025 28.025 0 01-24.258 13.96H92.178a28.025 28.025 0 01-24.257-13.96z" fill="url(#a)" fill-rule="nonzero"/><path d="M293.525 175.99L209 99l-102 7v23l12 10 11.5 8.5L108 172l97.287 103.99s17.213 1.5 26.713-2.49c2.54-2.319 7.657-3.98 13-12s48.525-85.51 48.525-85.51z" fill="#000" fill-rule="nonzero" opacity=".07"/><g fill="#FFF"><path d="M106.903 101.486L158.71 81l51.156 19.035v29.172l-51.156-19.035-51.807 20.486z"/><path d="M107.553 143.793l51.157-19.034 51.156 19.034v29.172l-51.156-19.034-51.157 19.034z"/><path d="M158.71 166.474l14.616-.802 25.578 10.94L158.71 192z"/></g></g></svg>